<?xml version="1.0" standalone="no"?>
<!DOCTYPE svg PUBLIC "-//W3C//DTD SVG 20010904//EN"
 "http://www.w3.org/TR/2001/REC-SVG-20010904/DTD/svg10.dtd">
<svg version="1.0" xmlns="http://www.w3.org/2000/svg"
 width="496.000000pt" height="456.000000pt" viewBox="0 0 496.000000 456.000000"
 preserveAspectRatio="xMidYMid meet">
<metadata>
Created by potrace 1.16, written by Peter Selinger 2001-2019
</metadata>
<g transform="translate(0.000000,456.000000) scale(0.100000,-0.100000)"
fill="#000000" stroke="none">
<path d="M2287 4544 c-265 -48 -496 -185 -679 -403 l-45 -54 -59 21 c-154 57
-335 80 -494 62 -665 -73 -1121 -702 -980 -1350 47 -218 147 -395 317 -562
165 -162 353 -256 609 -304 l22 -4 0 -837 0 -838 23 -60 c30 -81 112 -164 192
-193 l58 -22 1229 0 c1219 0 1230 0 1285 21 77 29 154 102 191 181 l29 63 5
839 5 839 81 18 c153 33 302 103 442 208 317 240 486 645 431 1037 -88 635
-700 1073 -1324 948 -38 -8 -105 -26 -149 -41 l-78 -27 -31 39 c-97 127 -279
271 -419 334 -205 92 -450 123 -661 85z m408 -304 c209 -66 405 -224 494 -397
27 -54 83 -93 133 -93 24 0 60 13 101 35 78 43 160 72 255 91 306 59 640 -85
818 -353 168 -251 188 -565 54 -837 -84 -172 -201 -291 -365 -372 -130 -64
-195 -78 -350 -78 -186 0 -295 34 -466 144 -72 46 -124 52 -176 20 -90 -55
-102 -167 -24 -240 80 -75 294 -172 451 -204 l65 -13 3 -511 2 -512 -1215 0
-1215 0 0 515 0 515 28 5 c185 38 318 89 438 168 44 29 89 67 101 86 61 92
-13 221 -126 221 -39 0 -59 -9 -129 -55 -85 -55 -149 -83 -257 -113 -85 -24
-316 -23 -405 2 -382 105 -640 459 -617 845 14 222 99 406 259 556 148 139
314 210 523 221 141 8 261 -18 403 -86 91 -45 112 -51 149 -47 55 6 68 18 131
120 118 193 285 315 517 378 99 27 319 21 420 -11z m995 -3762 c0 -127 -3
-154 -17 -170 -15 -17 -65 -18 -1190 -18 -1160 0 -1173 0 -1193 20 -18 18 -20
33 -20 170 l0 150 1210 0 1210 0 0 -152z"/>
<path d="M2020 1961 c-19 -10 -45 -36 -57 -57 -22 -38 -23 -47 -23 -341 l0
-303 151 0 150 0 -3 309 c-3 296 -4 311 -24 338 -52 70 -126 91 -194 54z"/>
<path d="M2800 1962 c-19 -9 -45 -32 -57 -51 -23 -33 -23 -38 -23 -342 l0
-309 145 0 145 0 0 309 c0 304 0 309 -23 342 -26 39 -79 69 -122 69 -16 0 -46
-8 -65 -18z"/>
</g>
</svg>
